{"title":"Pacquiao.vs.Bradley.2012.480p.HDTV.x264.AC3-ADTRG [PublicHD]","uid":7343217,"size":762935536,"categoryP":"video","categoryS":"tv_shows","magnet":"?xt=urn:btih:1f3ecf45046a5f39f0295a1e40a9f751aa491992&amp;dn=Pacquiao.vs.Bradley.2012.480p.HDTV.x264.AC3-ADTRG+%5BPublicHD%5D&amp;tr=udp%3A%2F%2Ftracker.openbittorrent.com%3A80&amp;tr=udp%3A%2F%2Fopen.demonii.com%3A1337&amp;tr=udp%3A%2F%2Ftracker.coppersurfer.tk%3A6969&amp;tr=udp%3A%2F%2Fexodus.desync.com%3A6969","seeders":1,"leechers":0,"uploader":"DibyaTPB","files":4,"time":1339326337,"description":"PublicHD - High-Definition Bittorrent Community \n  &lt;a href=&quot;\nhttp://publichd.eu/&quot; rel=&quot;nofollow&quot; target=&quot;_NEW&quot;&gt;\nhttp://publichd.eu/&lt;/a&gt;\n\n-----------------------------------------------------\n\n\nDescription:\n\nPacquiao.vs.Bradley.2012.480p.HDTV.x264.AC3-ADTRG\n\nBoxing \n\n\nSource -   superseed  Thanks \n\n\nComplete name                            : Pacquiao.vs.Bradley.2012.480p.HDTV.x264.AC3-ADTRG.mkv\nFormat                                   : Matroska\nFormat version                           : Version 2\nFile size                                : 716 MiB\nDuration                                 : 59mn 31s\nOverall bit rate                         : 1 683 Kbps\nMovie name                               : Pacquiao.vs.Bradley.2012.480p.HDTV.x264.AC3-ADTRG\nEncoded date                             : UTC 2012-06-10 07:14:42\nWriting application                      : mkvmerge v5.4.0 ('Piper') built on Mar 10 2012 13:34:39\nWriting library                          : libebml v1.2.3 + libmatroska v1.3.0\n\nVideo\nID                                       : 1\nFormat                                   : AVC\nFormat/Info                              : Advanced Video Codec\nFormat profile                           : &lt;a class=&quot;__cf_email__&quot; href=&quot;/cdn-cgi/l/email-protection&quot; data-cfemail=&quot;357d5c525d7579011b04&quot;&gt;[email&amp;#160;protected]&lt;/a&gt;&lt;script cf-hash='f9e31' type=&quot;text/javascript&quot;&gt;\n/* &lt;![CDATA[ */!function(){try{var t=&quot;currentScript&quot;in document?document.currentScript:function(){for(var t=document.getElementsByTagName(&quot;script&quot;),e=t.length;e--;)if(t[e].getAttribute(&quot;cf-hash&quot;))return t[e]}();if(t&amp;&amp;t.previousSibling){var e,r,n,i,c=t.previousSibling,a=c.getAttribute(&quot;data-cfemail&quot;);if(a){for(e=&quot;&quot;,r=parseInt(a.substr(0,2),16),n=2;a.length-n;n+=2)i=parseInt(a.substr(n,2),16)^r,e+=String.fromCharCode(i);e=document.createTextNode(e),c.parentNode.replaceChild(e,c)}}}catch(u){}}();/* ]]&gt; */&lt;/script&gt;\nBit rate                                 : 1 500 Kbps\nWidth                                    : 852 pixels\nHeight                                   : 478 pixels\nDisplay aspect ratio                     : 16:9\nFrame rate                               : 25.000 fps\nStream size                              : 620 MiB (87%)\n\nAudio\nID                                       : 2\nFormat                                   : AC-3\nBit rate                                 : 192 Kbps\nChannel(s)                               : 2 channels\nChannel positions                        : Front: L R\nSampling rate                            : 48.0 KHz\nStream size                              : 81.7 MiB (11%)\nLanguage                                 : English\n\n\nEncoder - LiMeY\nGood things come in small packages, So feel the wrath of my compression\n","torrent":{"xt":"urn:btih:1f3ecf45046a5f39f0295a1e40a9f751aa491992","amp;dn":"Pacquiao.vs.Bradley.2012.480p.HDTV.x264.AC3-ADTRG+%5BPublicHD%5D","amp;tr":["udp%3A%2F%2Ftracker.openbittorrent.com%3A80","udp%3A%2F%2Fopen.demonii.com%3A1337","udp%3A%2F%2Ftracker.coppersurfer.tk%3A6969","udp%3A%2F%2Fexodus.desync.com%3A6969"],"infoHash":"1f3ecf45046a5f39f0295a1e40a9f751aa491992","infoHashBuffer":{"type":"Buffer","data":[31,62,207,69,4,106,95,57,240,41,90,30,64,169,247,81,170,73,25,146]},"announce":[],"urlList":[]}}